<?xml version="1.0" encoding="UTF-8"?>
<svg version="1.1" viewBox="0 0 1600 576" width="1280" height="1280" xmlns="http://www.w3.org/2000/svg">
<path transform="translate(0)" d="m0 0h1600v576h-1600v-576z" fill="#FDFDFD"/>
<path transform="translate(1445,131)" d="m0 0c1.13 0.526 2.26 1.05 3.43 1.59 8.03 4 14.2 9.09 20.6 15.4 1.26 1.22 1.26 1.22 2.54 2.47 18.6 19.2 25.9 42.9 25.6 69.1-0.504 24.2-11.1 44.8-28.1 61.4-0.739 0.748-1.48 1.5-2.24 2.27-15.9 15.2-38.2 22.7-59.9 23-23.5-0.615-43.8-8.53-61.9-23.3-0.641-0.477-1.28-0.954-1.94-1.45-16.5-12.8-25.6-34.6-29.1-54.6-1.76-27.9 4.93-52 23-73.8 3.1-3.42 6.45-6.35 10-9.24 0.641-0.562 1.28-1.12 1.94-1.7 26.6-22.4 65.2-26.1 96.1-11.3z" fill="#000102"/>
<path transform="translate(1122 125)" d="m0 0c0.659-0.00327 1.32-0.00654 2-0.00991 2.21-0.00729 4.43 0.00689 6.64 0.021 1.59-7.91e-4 3.17-0.00289 4.76-0.0062 4.31-0.00514 8.62 0.00841 12.9 0.0255 4.5 0.015 9 0.0139 13.5 0.0147 7.56 0.00369 15.1 0.0187 22.7 0.0412 9.71 0.0289 19.4 0.0392 29.1 0.0437 8.34 0.00397 16.7 0.0165 25 0.0303 2.69 0.00411 5.37 0.00703 8.06 0.0098 4.21 0.00488 8.43 0.0151 12.6 0.0294 1.55 0.00454 3.1 0.00736 4.65 0.00841 2.11 0.00174 4.22 0.00959 6.32 0.0191 1.18 0.00297 2.36 0.00595 3.58 0.00901 2.63 0.131 2.63 0.131 3.63 1.13v41c-60.9 0.495-60.9 0.495-123 1v59c10.9 0.0909 10.9 0.0909 22.1 0.184 4.6 0.0405 9.2 0.0812 13.8 0.123 7.31 0.0664 14.6 0.132 21.9 0.191 5.89 0.0476 11.8 0.0999 17.7 0.156 2.25 0.0205 4.5 0.0392 6.75 0.0561 3.14 0.024 6.28 0.054 9.43 0.0856 1.41 0.00863 1.41 0.00863 2.85 0.0174 6.42 0.0738 6.42 0.0738 7.53 1.19 0.0887 3.03 0.115 6.04 0.0977 9.07-0.00212 1.36-0.00212 1.36-0.00429 2.75-0.00562 2.91-0.0182 5.83-0.0309 8.74-0.00501 1.97-0.00958 3.94-0.0137 5.91-0.0111 4.84-0.0283 9.68-0.0488 14.5-1.26 0.0103-2.53 0.0206-3.83 0.0312-11.9 0.0976-23.8 0.2-35.6 0.308-6.11 0.0553-12.2 0.109-18.3 0.158-5.89 0.0476-11.8 0.0999-17.7 0.156-2.25 0.0205-4.5 0.0392-6.75 0.0561-3.14 0.024-6.28 0.054-9.43 0.0856-0.941 0.00576-1.88 0.0115-2.85 0.0174-4.09-0.367-4.09-0.367-7.53 1.19-0.123 1.81-0.178 3.62-0.205 5.44-0.0299 1.74-0.0299 1.74-0.0604 3.52-0.0251 1.9-0.0251 1.9-0.0506 3.83-0.0208 1.29-0.0416 2.57-0.063 3.9-0.0553 3.42-0.105 6.85-0.153 10.3-0.0502 3.49-0.106 6.98-0.161 10.5-0.108 6.86-0.209 13.7-0.307 20.6 0.633 0.00423 1.27 0.00846 1.92 0.0128 15.4 0.103 30.8 0.212 46.1 0.327 7.44 0.0553 14.9 0.109 22.3 0.158 6.48 0.0428 13 0.0891 19.4 0.14 3.43 0.0266 6.87 0.0515 10.3 0.0722 3.83 0.0232 7.65 0.054 11.5 0.0856 1.15 0.00576 2.29 0.0115 3.47 0.0174 1.04 0.00979 2.07 0.0196 3.14 0.0297 0.906 0.00645 1.81 0.0129 2.75 0.0196 2.04 0.139 2.04 0.139 3.04 1.14 0.0887 3.03 0.115 6.04 0.0977 9.07-0.00212 1.36-0.00212 1.36-0.00429 2.75-0.00562 2.91-0.0182 5.83-0.0309 8.74-0.00501 1.97-0.00958 3.94-0.0137 5.91-0.0111 4.84-0.0283 9.68-0.0488 14.5-21.2 0.0233-42.5 0.041-63.7 0.0518-9.86 0.00516-19.7 0.0122-29.6 0.0236-8.59 0.00995-17.2 0.0164-25.8 0.0186-4.55 0.00131-9.1 0.00439-13.7 0.0116-4.28 0.00676-8.56 0.00889-12.8 0.00738-1.58 2.76e-4 -3.15 0.00228-4.73 0.0061-2.14 0.00493-4.28 0.00379-6.42 0.00105-1.2 9.22e-4 -2.4 0.00184-3.64 0.00279-2.67-0.123-2.67-0.123-3.67-1.12-0.388-3.63-0.426-7.3-0.55-10.9-0.042-1.23-0.0839-2.45-0.127-3.71-0.623-19.9-0.507-39.8-0.523-59.7-0.00296-3.55-0.00707-7.1-0.0115-10.7-0.0136-11.1-0.0233-22.3-0.0272-33.4-0.00451-12.8-0.0222-25.6-0.051-38.5-0.0216-9.96-0.0317-19.9-0.033-29.9-0.00105-5.93-0.00697-11.9-0.0248-17.8-0.0164-5.55-0.0187-11.1-0.00986-16.7 7.74e-4 -2.04-0.00362-4.08-0.0135-6.12-0.0126-2.77-0.0069-5.55 0.00358-8.32-0.00806-0.813-0.0161-1.63-0.0244-2.46 0.0262-2.94 0.0536-5.31 1.51-7.91 2.82-1.5 5.16-1.37 8.35-1.37z" fill="#000102"/>
<path transform="translate(811,122)" d="m0 0c2.88 1.44 3 3.18 4.11 6.18 0.417 1.12 0.834 2.24 1.26 3.39 0.681 1.86 0.681 1.86 1.38 3.75 1 2.69 2.01 5.37 3.01 8.05 0.263 0.705 0.527 1.41 0.798 2.14 2.93 7.84 5.96 15.6 9 23.4 0.581 1.49 1.16 2.99 1.74 4.48 3.39 8.7 6.79 17.4 10.2 26.1 1.56 3.98 3.12 7.96 4.68 11.9 0.582 1.48 0.582 1.48 1.18 3 4.51 11.5 8.98 23 13.3 34.6 4.3 11.4 8.75 22.8 13.2 34.1 6.6 16.7 13.1 33.4 19.5 50.1 0.769 1.99 1.54 3.98 2.31 5.96 0.367 0.95 0.734 1.9 1.11 2.88 1.61 4.16 3.24 8.32 4.92 12.5 0.275 0.677 0.551 1.35 0.835 2.05 0.712 1.74 1.43 3.47 2.15 5.21 1.37 3.72 2.29 7.4 3.19 11.3-6.07 0.0741-12.1 0.129-18.2 0.165-2.07 0.0151-4.13 0.0356-6.2 0.0615-2.97 0.0363-5.93 0.0534-8.9 0.0667-0.925 0.0155-1.85 0.031-2.8 0.0469-0.861 2.27e-4 -1.72 4.53e-4 -2.61 6.87e-4 -0.757 0.00666-1.51 0.0133-2.29 0.0202-2.55-0.462-3.4-1.35-4.99-3.36-1.15-2.53-1.15-2.53-2.23-5.51-0.588-1.6-0.588-1.6-1.19-3.24-0.4-1.12-0.799-2.23-1.21-3.38-0.802-2.21-1.61-4.42-2.41-6.63-0.529-1.47-0.529-1.47-1.07-2.97-0.691-2.2-0.691-2.2-1.89-3.27-2.68-0.0951-5.33-0.126-8.01-0.114-0.839-1.46e-4 -1.68-2.92e-4 -2.54-4.43e-4 -2.79 6.99e-4 -5.57 0.00849-8.36 0.0163-1.93 0.00186-3.85 0.00329-5.78 0.00429-5.08 0.00383-10.2 0.0137-15.2 0.0247-5.18 0.0102-10.4 0.0148-15.5 0.0198-10.2 0.0107-20.3 0.0278-30.5 0.0488-0.198 0.744-0.397 1.49-0.601 2.26-0.396 1.47-0.396 1.47-0.801 2.98-0.26 0.971-0.52 1.94-0.789 2.94-1.07 3.74-2.44 7.3-3.93 10.9-0.396 0.974-0.396 0.974-0.801 1.97-0.965 2.36-1.93 4.69-3.07 6.97-3.87 0.0252-7.75 0.0431-11.6 0.0549-1.95 0.00735-3.89 0.0201-5.84 0.033-18.3 0.0467-18.3 0.0467-25.5-1.09-1-2-1-2-0.499-3.76 0.292-0.704 0.585-1.41 0.886-2.13 0.325-0.796 0.65-1.59 0.985-2.41 0.361-0.863 0.721-1.73 1.09-2.61 0.751-1.83 1.5-3.67 2.25-5.5 0.384-0.934 0.768-1.87 1.16-2.83 1.67-4.08 3.27-8.19 4.88-12.3 0.307-0.787 0.615-1.57 0.931-2.38 0.96-2.46 1.92-4.92 2.88-7.38 0.339-0.87 0.679-1.74 1.03-2.64 5.36-13.8 10.7-27.5 16-41.3 5.9-15.4 11.9-30.7 17.8-46 2.07-5.33 4.15-10.7 6.21-16 5.44-14 10.9-28 16.4-42 2.72-6.9 5.42-13.8 8-20.8 2.59-6.96 5.25-13.9 7.94-20.8 0.495-1.28 0.987-2.55 1.48-3.83 0.692-1.8 1.39-3.6 2.09-5.4 0.407-1.05 0.814-2.1 1.23-3.18 1.17-2.59 2.45-4.59 4.26-6.77z" fill="#000102"/>
<path transform="translate(421,122)" d="m0 0h2c4.06 9.46 7.72 19.1 11.4 28.7 6.19 16.4 12.5 32.7 19 49 0.618 1.56 1.24 3.12 1.85 4.67 0.307 0.774 0.614 1.55 0.931 2.35 4.47 11.3 8.85 22.6 13.2 33.9 3.2 8.22 6.43 16.4 9.73 24.6 2.6 6.48 5.13 13 7.55 19.5 2.14 5.76 4.38 11.5 6.63 17.2 0.378 0.963 0.756 1.93 1.15 2.92 1.56 3.97 3.12 7.94 4.69 11.9 4.3 10.9 8.56 21.8 12.6 32.9 2.27 6.24 4.73 12.4 7.26 18.5 1.07 2.81 1.07 2.81 1.07 4.81-5.75 0.0743-11.5 0.129-17.2 0.165-1.95 0.0151-3.91 0.0355-5.86 0.0615-2.81 0.0365-5.62 0.0534-8.44 0.0667-1.31 0.0232-1.31 0.0232-2.64 0.0469-4.71 0.0013-8.13-0.0718-11.8-3.34-1.38-2.53-1.38-2.53-2.42-5.51-0.578-1.6-0.578-1.6-1.17-3.24-0.383-1.12-0.766-2.23-1.16-3.38-0.785-2.21-1.57-4.42-2.36-6.63-0.51-1.47-0.51-1.47-1.03-2.97-0.658-2.2-0.658-2.2-1.86-3.27-2.68-0.0951-5.33-0.126-8.01-0.114-0.839-1.46e-4 -1.68-2.92e-4 -2.54-4.43e-4 -2.79 6.99e-4 -5.57 0.00849-8.36 0.0163-1.93 0.00186-3.85 0.00329-5.78 0.00429-5.08 0.00383-10.2 0.0137-15.2 0.0247-5.18 0.0102-10.4 0.0148-15.5 0.0198-10.2 0.0107-20.3 0.0278-30.5 0.0488-0.195 0.665-0.391 1.33-0.592 2.01-2.6 8.78-2.6 8.78-4.23 12.9-0.306 0.78-0.612 1.56-0.928 2.36-0.309 0.775-0.617 1.55-0.936 2.35-0.32 0.813-0.641 1.63-0.971 2.46-0.777 1.97-1.56 3.94-2.34 5.91-9.81 0.0684-19.6-0.131-29.4-0.5-1.33-0.0484-2.67-0.0966-4-0.145-3.21-0.116-6.42-0.235-9.62-0.355-1-2-1-2-0.262-4.38 0.402-0.997 0.805-1.99 1.22-3.02 0.448-1.12 0.895-2.24 1.36-3.4 0.495-1.22 0.99-2.44 1.5-3.69 0.774-1.93 1.54-3.87 2.32-5.8 0.527-1.32 1.05-2.64 1.58-3.96 2.38-5.95 4.69-11.9 6.98-17.9 4.28-11.2 8.64-22.3 13-33.5 5.31-13.6 10.6-27.2 15.8-40.8 5.29-13.8 10.6-27.6 16-41.3 4.41-11.3 8.8-22.6 13.2-33.9 0.368-0.953 0.368-0.953 0.743-1.93 2.68-6.94 5.35-13.9 8.03-20.8 7.72-20 7.72-20 11.1-28.6 0.452-1.14 0.903-2.28 1.37-3.45 1.05-2.43 1.05-2.43 2.05-3.43z" fill="#000102"/>
<path transform="translate(669 140)" d="m0 0c13.5 12.7 20.9 27.5 23.9 45.8v7h-40c-3-7-3-7-3.99-9.44-3.73-8.97-7.48-12.8-16.4-16.6-9.71-3.63-21.7-3.37-31.2 0.781-0.811 0.409-1.62 0.817-2.46 1.24-0.801 0.378-1.6 0.755-2.43 1.14-7.59 4.22-11.6 11.8-14.2 19.9-1.59 9.18-0.275 18.2 5.07 26 8.13 9.04 19.3 11.8 30.9 12.6 21.6 1.99 41.9 7.66 57.2 24 14 16.9 20.1 37.7 18.2 59.5-2.17 18.5-8.98 34.9-23.7 46.9-20.7 15.1-44.1 19.8-69.2 15.9-18.4-3.25-37.3-12.8-48.8-27.9-7.44-11.7-13.8-26.9-13-41 2-2 2-2 5.81-2.23 1.64 3.17e-4 3.28 0.0117 4.92 0.0317 0.863 0.00283 1.73 0.00566 2.61 0.00858 2.76 0.0112 5.52 0.0363 8.28 0.0617 1.87 0.01 3.74 0.0192 5.61 0.0273 4.59 0.0221 9.18 0.0566 13.8 0.0977 0.305 0.929 0.305 0.929 0.616 1.88 0.268 0.812 0.536 1.62 0.813 2.46 0.265 0.805 0.53 1.61 0.804 2.44 3.22 9.33 9 15.7 17.8 20.2 5.56 2.36 10.8 2.37 16.8 2.38 0.938 0.0245 1.88 0.049 2.84 0.0742 9.32 0.0386 18.6-2.82 25.4-9.45 4.84-6.41 6.22-11.7 6.31-19.7 0.029-0.778 0.058-1.56 0.0879-2.36 0.0642-5.92-1.37-9.91-4.4-15-0.358-0.628-0.715-1.26-1.08-1.9-4.48-7.6-13.5-12.4-21.8-14.6-5.13-0.889-10.3-1.25-15.5-1.71-22.4-2.1-42.7-12.9-57.4-30-10.1-13.7-14.2-33.3-12-49.9 2.66-16.1 9.33-31.1 20.7-43 0.674-0.703 1.35-1.41 2.04-2.13 28.5-27.3 77-29.7 107-3.62z" fill="#000102"/>
<path transform="translate(266,130)" d="m0 0c0.984 0.345 1.97 0.691 2.98 1.05 13.1 4.89 31.1 15.1 39 27-0.134 4.21-3.21 6.57-6.06 9.32-0.504 0.498-1.01 0.995-1.53 1.51-1.61 1.59-3.23 3.16-4.85 4.74-1.62 1.58-3.23 3.16-4.84 4.75-1 0.985-2.01 1.97-3.01 2.94-2.21 2.16-3.98 4.16-5.71 6.74-0.969-0.701-1.94-1.4-2.94-2.12-22.4-16-44.2-24.4-72.1-20.4-19.9 3.85-38 13-49.8 29.9-14.3 21.5-19.8 47.6-15 73.1 4.58 21.1 14.9 39.4 32.9 51.7 20.5 12.6 42.9 16 66.6 12.2 14.3-3.42 27-11.1 38.3-20.4 3.21 1.42 5.38 3.12 7.86 5.6 0.723 0.72 1.45 1.44 2.19 2.18 0.746 0.753 1.49 1.51 2.26 2.28 0.734 0.726 1.47 1.45 2.22 2.2 13.5 13.5 13.5 13.5 13.5 18.7-1.96 1.84-3.87 3.45-6 5.06-0.629 0.482-1.26 0.965-1.91 1.46-29.1 21.9-61.9 30-98.1 25.4-21-2.97-40.1-11.2-57-23.9-1.29-0.951-1.29-0.951-2.61-1.92-4.71-3.54-4.71-3.54-6.39-5.08v-2h-2v-2c-0.572-0.231-1.14-0.461-1.73-0.699-15.4-8.86-25.1-34.9-29.7-51.1-6.11-22.9-6.87-47.1-1.58-70.2 0.161-0.707 0.322-1.41 0.488-2.14 6.12-25.6 20.7-50.4 41.5-66.9 1.49-1.18 1.49-1.18 3-2.39 33.1-25.4 81.2-32 120-16.6z" fill="#000102"/>
<path transform="translate(1355 483)" d="m0 0c2.85-0.00162 5.7-0.00273 8.55-0.00374 1.3-8.98e-4 1.3-8.98e-4 2.63-0.00181 6.36-0.00149 12.7 0.0575 19.1 0.191 0.989 0.0198 1.98 0.0396 3 0.0601 2.04 0.0417 4.07 0.0846 6.11 0.129 3.13 0.0666 6.27 0.125 9.4 0.184 2 0.0419 3.99 0.0842 5.99 0.127 0.935 0.0167 1.87 0.0334 2.83 0.0506 1.28 0.0299 1.28 0.0299 2.59 0.0604 0.752 0.0155 1.5 0.0311 2.28 0.0471 1.73 0.158 1.73 0.158 2.73 1.16 0.0731 2.53 0.0925 5.03 0.0625 7.56-0.00451 0.711-0.00902 1.42-0.0137 2.15-0.0118 1.76-0.0298 3.52-0.0488 5.28-36.9 0.011-73.7 0.0215-111 0.0317-0.721 2e-4 -1.44 3.99e-4 -2.19 6.05e-4 -77.3 0.0214-155 0.0398-232 0.0523-1.72 2.79e-4 -3.43 5.58e-4 -5.15 8.37e-4 -36 0.00585-72.1 0.0113-108 0.0162-18.1 0.00249-36.2 0.00506-54.3 0.00771-2.73 3.98e-4 -5.46 7.95e-4 -8.19 0.00119-42 0.00612-84.1 0.0139-126 0.0267-1.36 4.11e-4 -1.36 4.11e-4 -2.74 8.3e-4 -14.6 0.00442-29.2 0.00899-43.7 0.0136-42 0.0132-84 0.0254-126 0.0305-1.29 1.61e-4 -1.29 1.61e-4 -2.62 3.24e-4 -18.9 0.00233-37.9 0.00412-56.8 0.0054-7.62 5.23e-4 -15.2 0.00112-22.9 0.00175-0.834 6.69e-5 -1.67 1.34e-4 -2.53 2.03e-4 -26.9 0.00219-53.8 0.0107-80.7 0.0226-27.1 0.0119-54.2 0.0176-81.3 0.0147-3.74-4.06e-4 -7.48-7.41e-4 -11.2-0.00103-0.733-5.98e-5 -1.47-1.2e-4 -2.22-1.81e-4 -11.6-7.62e-4 -23.3 0.00522-34.9 0.014-11.4 0.00848-22.8 0.0097-34.3 0.00364-6.11-0.00303-12.2-0.00283-18.3 0.0061-5.56 0.00805-11.1 0.00701-16.7-0.00149-2-0.00144-4.01 5.29e-4 -6.01 0.00619-2.71 0.00717-5.42 0.00212-8.13-0.00607-0.78 0.00502-1.56 0.01-2.36 0.0152-4.42-0.0287-8.01-0.627-12.1-2.26-0.0539-1.96-0.0927-3.92-0.125-5.88-0.0232-1.09-0.0464-2.18-0.0703-3.3 0.195-2.82 0.195-2.82 2.2-4.82 2.55-0.198 4.99-0.27 7.55-0.255 1.19-0.00488 1.19-0.00488 2.4-0.00985 2.69-0.00855 5.38-0.00269 8.07 0.00295 1.94-0.00318 3.89-0.00724 5.83-0.0121 5.39-0.0109 10.8-0.00922 16.2-0.00565 5.84 0.0017 11.7-0.00814 17.5-0.0166 10.3-0.0132 20.5-0.0189 30.8-0.0198 11-9.35e-4 22-0.00621 33-0.0168 0.694-6.67e-4 1.39-0.00133 2.1-0.00202 3.54-0.00342 7.08-0.00692 10.6-0.0104 25.7-0.0254 51.3-0.041 77-0.0516 25.4-0.0105 50.9-0.0251 76.3-0.0453 0.79-6.24e-4 1.58-0.00125 2.39-0.00189 7.21-0.0057 14.4-0.0115 21.6-0.0173 17.9-0.0145 35.9-0.0283 53.8-0.0416 1.23-9.15e-4 1.23-9.15e-4 2.47-0.00185 39.8-0.0296 79.5-0.0519 119-0.0735 13.8-0.00752 27.6-0.0151 41.4-0.0228 0.855-4.77e-4 1.71-9.54e-4 2.59-0.00144 39.7-0.0222 79.4-0.0496 119-0.0784 2.58-0.00187 5.15-0.00373 7.73-0.0056 15.4-0.0111 30.8-0.0223 46.1-0.0336 36.5-0.0268 73.1-0.053 110-0.0787 0.802-5.66e-4 1.6-0.00113 2.43-0.00171 70.9-0.05 142-0.0944 213-0.136 4.81-0.00281 9.62-0.00564 14.4-0.00847 16.5-0.00972 33.1-0.0193 49.6-0.0287 3.41-0.00195 6.82-0.00392 10.2-0.00589 5.26-0.00304 10.5-0.00601 15.8-0.00894 1.88-0.00105 3.76-0.00213 5.64-0.00322 5.04-0.00292 10.1-0.00543 15.1-0.00735 1.79-7.59e-4 3.58-0.00168 5.37-0.00272z" fill="#000102"/>
<path transform="translate(948 125)" d="m0 0c1.22 0.00281 1.22 0.00281 2.47 0.00568 1.72 0.00672 3.44 0.0206 5.16 0.0412 2.64 0.0312 5.28 0.041 7.93 0.0469 1.67 0.00917 3.34 0.0195 5.01 0.0312 0.795 0.00425 1.59 0.0085 2.41 0.0129 5.56 0.0731 5.56 0.0731 6.68 1.19 0.11 2.63 0.155 5.23 0.158 7.86 0.00741 1.25 0.00741 1.25 0.015 2.53 0.0155 2.82 0.0238 5.63 0.0321 8.45 0.00957 2.01 0.0196 4.02 0.03 6.03 0.0271 5.47 0.0481 10.9 0.068 16.4 0.0218 5.71 0.0492 11.4 0.0761 17.1 0.05 10.8 0.0949 21.7 0.138 32.5 0.0493 12.3 0.104 24.7 0.16 37 0.114 25.4 0.221 50.7 0.323 76.1 1.11 0.0103 2.23 0.0206 3.37 0.0312 10.5 0.0976 20.9 0.2 31.4 0.308 5.38 0.0553 10.8 0.109 16.1 0.158 5.19 0.0476 10.4 0.0999 15.6 0.156 1.98 0.0205 3.97 0.0392 5.95 0.0561 2.77 0.024 5.54 0.054 8.3 0.0856 0.829 0.00576 1.66 0.0115 2.51 0.0174 5.66 0.0738 5.66 0.0738 6.77 1.19 0.0887 3.03 0.115 6.04 0.0977 9.07-0.00212 1.36-0.00212 1.36-0.00429 2.75-0.00562 2.91-0.0182 5.83-0.0309 8.74-0.00501 1.97-0.00958 3.94-0.0137 5.91-0.0111 4.84-0.0283 9.68-0.0488 14.5-16.9 0.0233-33.8 0.041-50.7 0.0518-7.85 0.00516-15.7 0.0122-23.6 0.0236-6.84 0.00995-13.7 0.0164-20.5 0.0186-3.63 0.00131-7.25 0.00439-10.9 0.0116-4.04 0.00802-8.08 0.00826-12.1 0.0078-1.81 0.00539-1.81 0.00539-3.66 0.0109-1.1-0.00137-2.19-0.00275-3.32-0.00417-1.44 0.00138-1.44 0.00138-2.9 0.00279-2.28-0.123-2.28-0.123-4.28-1.12-0.96-4.82-1.13-9.52-1.13-14.4-0.00156-0.715-0.00312-1.43-0.00473-2.17-0.00397-2.38-8.36e-4 -4.76 0.00232-7.14-0.00136-1.72-0.00314-3.43-0.00531-5.15-0.00456-4.67-0.00279-9.33 3.79e-4 -14 0.00255-4.94 1.77e-4 -9.88-0.00139-14.8-0.00182-8.35 5.77e-4 -16.7 0.00534-25 0.00477-8.46 0.00487-16.9 0-25.4-0.0444-79.8-0.0444-79.8 0.402-111 0.0318-2.29 0.059-4.58 0.0813-6.87 0.0316-3.04 0.082-6.07 0.139-9.11 6e-3 -0.865 0.012-1.73 0.0182-2.62 0.142-5.7 0.142-5.7 1.78-7.88 2.95-2.22 6.52-1.67 10.1-1.61z" fill="#000102"/>
<path transform="translate(1433 171)" d="m0 0c11.7 8.92 20.5 21.2 22.8 35.9 1.11 14.3-0.95 27.3-10.1 38.6-5 5.69-9.87 10.6-16.7 14-0.802 0.405-1.6 0.81-2.43 1.23-11 4.69-26.5 5.46-37.9 1.52-2.43-1.1-2.43-1.1-4.75-2.38-0.901-0.494-1.8-0.987-2.73-1.5-3.91-2.26-7.8-4.59-11.3-7.5v-2h-2c-9.58-10.9-13.6-23.7-13.3-38 0.957-13.8 7.96-26.9 18.3-36 18.2-12.4 40.8-16.5 60.2-3.88z" fill="#FDFDFD"/>
<path transform="translate(1471 331)" d="m0 0c1.94-0.00942 3.88-0.0187 5.82-0.0276 0.869-0.00782 1.74-0.0156 2.63-0.0237 1.97-0.00619 3.94 0.0385 5.9 0.0955 1 1 1 1 1.11 4.88-1.59e-4 1.73-0.00586 3.46-0.0159 5.19-0.00212 1.36-0.00212 1.36-0.00429 2.75-0.00562 2.91-0.0182 5.83-0.0309 8.74-0.00501 1.97-0.00958 3.94-0.0137 5.91-0.0111 4.84-0.0283 9.68-0.0488 14.5-21.1 0.0233-42.2 0.041-63.3 0.0518-9.8 0.00516-19.6 0.0122-29.4 0.0236-8.54 0.00995-17.1 0.0164-25.6 0.0186-4.52 0.00131-9.05 0.00439-13.6 0.0116-4.25 0.00676-8.5 0.00889-12.8 0.00738-1.57 2.76e-4 -3.13 0.00228-4.7 0.0061-2.13 0.00493-4.26 0.00379-6.38 0.00105-1.79 0.00138-1.79 0.00138-3.62 0.00279-2.65-0.123-2.65-0.123-3.65-1.12-0.113-2.79-0.164-5.55-0.168-8.34-0.00333-0.837-0.00666-1.67-0.0101-2.54-0.00507-1.77-0.00741-3.55-0.00725-5.32-0.00219-2.72-0.0203-5.44-0.0393-8.16-0.00293-1.72-0.00492-3.44-0.00586-5.16-0.00719-0.818-0.0144-1.64-0.0218-2.48 0.0234-5.77 0.0234-5.77 2.25-7.99 2.36-0.262 2.36-0.262 5.38-0.278 1.14-0.0112 2.28-0.0223 3.46-0.0338 1.26-0.00216 2.52-0.00432 3.82-0.00655 1.34-0.0093 2.67-0.0195 4.01-0.0304 3.64-0.0274 7.28-0.0425 10.9-0.0554 3.82-0.0156 7.65-0.0425 11.5-0.068 7.27-0.0469 14.5-0.0836 21.8-0.117 8.19-0.0378 16.4-0.0875 24.6-0.138 16.7-0.102 33.3-0.196 50-0.257 3.4-0.0146 6.8-0.0363 10.2-0.0594z" fill="#000102"/>
<path transform="translate(809,227)" d="m0 0h3c0.392 1.1 0.783 2.2 1.19 3.33 1.51 4.25 3.03 8.49 4.54 12.7 0.681 1.91 1.36 3.82 2.04 5.73 3.58 10.1 7.18 20.1 10.9 30.1 0.279 0.759 0.557 1.52 0.844 2.3 1.3 3.55 2.61 7.1 3.93 10.6 0.467 1.27 0.933 2.54 1.4 3.8 0.402 1.08 0.804 2.17 1.22 3.28 0.977 3.04 0.977 3.04 1.98 9.04h-57c-1.11-3.33-0.941-3.89 0.181-7.06 0.428-1.23 0.428-1.23 0.864-2.48 0.32-0.889 0.641-1.78 0.971-2.69 0.327-0.931 0.654-1.86 0.992-2.82 1.07-3.05 2.16-6.09 3.24-9.13 0.736-2.09 1.47-4.17 2.21-6.26 1.48-4.19 2.96-8.38 4.44-12.6 2.92-8.27 5.77-16.6 8.61-24.9 0.466-1.36 0.933-2.72 1.4-4.08 1.03-3.02 2.07-6.03 3.1-9.05z" fill="#FDFDFD"/>
<path transform="translate(420,227)" d="m0 0h3c0.191 0.539 0.382 1.08 0.578 1.63 1.65 4.67 3.31 9.34 4.96 14 1.56 4.41 3.12 8.82 4.68 13.2 3.35 9.47 6.7 18.9 10.1 28.4 0.472 1.3 0.944 2.6 1.42 3.9 0.838 2.3 1.68 4.6 2.53 6.89 0.364 1 0.729 2 1.1 3.04 0.466 1.26 0.466 1.26 0.942 2.55 0.648 2.38 0.648 2.38 0.648 7.38h-57c-1-2-1-2-0.429-4.02 0.488-1.25 0.488-1.25 0.986-2.52 0.363-0.944 0.727-1.89 1.1-2.86 0.604-1.54 0.604-1.54 1.22-3.12 3.35-8.73 6.59-17.5 9.65-26.3 0.365-1.05 0.73-2.11 1.11-3.19 1.1-3.19 2.2-6.39 3.3-9.58 0.761-2.2 1.52-4.4 2.28-6.6 3.94-11.4 3.94-11.4 7.78-22.8z" fill="#FDFDFD"/>
</svg>
